<svg width="42" height="32" viewBox="0 0 42 32" fill="none" xmlns="http://www.w3.org/2000/svg">
<path fill-rule="evenodd" clip-rule="evenodd" d="M37.2327 10.1042H4.88364V18.6182V26.3952C4.88364 29.0715 6.68727 31.2436 8.87879 31.2436H33.2376C35.4291 31.2436 37.2327 29.0521 37.2327 26.3952V18.6182V10.1042Z" fill="#FFC38C"/>
<path fill-rule="evenodd" clip-rule="evenodd" d="M37.0776 8.82421H4.86423V8.51391C4.86423 5.85694 6.64847 3.68481 8.83999 3.68481H33.1018C35.2933 3.68481 37.0776 5.85694 37.0776 8.51391V8.82421Z" fill="#FFC38C"/>
<path fill-rule="evenodd" clip-rule="evenodd" d="M19.0606 3.68483H22.4352V2.8315C22.4352 1.70666 21.6788 0.775757 20.7479 0.775757C19.817 0.775757 19.0606 1.70666 19.0606 2.8315V3.68483Z" fill="#FFC38C"/>
<path fill-rule="evenodd" clip-rule="evenodd" d="M37.1357 16.8921V10.0848H38.2994C39.8315 10.0848 41.0921 11.617 41.0921 13.4788C41.0921 15.3406 39.8315 16.8727 38.2994 16.8727H37.1357V16.8921Z" fill="#FFC38C"/>
<path fill-rule="evenodd" clip-rule="evenodd" d="M20.7479 31.2242V10.1042H4.88364V18.6182V26.3952C4.88364 29.0715 6.68727 31.2436 8.87879 31.2436H20.7479V31.2242Z" fill="#FFC38C"/>
<path fill-rule="evenodd" clip-rule="evenodd" d="M4.86423 8.82421H20.7479V3.68481H19.0606H8.83998C6.64847 3.68481 4.86423 5.85694 4.86423 8.51391V8.82421Z" fill="#FFC38C"/>
<path fill-rule="evenodd" clip-rule="evenodd" d="M19.0606 2.8315V3.68483H20.7479V0.775757C19.817 0.775757 19.0606 1.70666 19.0606 2.8315Z" fill="#FFC38C"/>
<path fill-rule="evenodd" clip-rule="evenodd" d="M4.86423 16.9115V10.1042H3.70059C2.16847 10.1042 0.907867 11.6364 0.907867 13.4982C0.907867 15.36 2.16847 16.8921 3.70059 16.8921H4.86423V16.9115Z" fill="#FFC38C"/>
</svg>

