<svg  viewBox="0 0 211 32" fill="none" xmlns="http://www.w3.org/2000/svg">
<path d="M14 21.88V25H0.992V8.2H13.688V11.32H4.856V14.968H12.656V17.992H4.856V21.88H14ZM39.3176 21.4H31.5176L30.0296 25H26.0456L33.5336 8.2H37.3736L44.8856 25H40.8056L39.3176 21.4ZM38.0936 18.448L35.4296 12.016L32.7656 18.448H38.0936ZM60.4248 11.368H55.0488V8.2H69.6888V11.368H64.3128V25H60.4248V11.368ZM100.898 8.2H104.786V25H100.898V8.2ZM123.413 11.368H118.037V8.2H132.677V11.368H127.301V25H123.413V11.368Z" fill="#EFA067"/>
<path fill-rule="evenodd" clip-rule="evenodd" d="M206.233 10.1042H173.884V18.6182V26.3952C173.884 29.0715 175.687 31.2436 177.879 31.2436H202.238C204.429 31.2436 206.233 29.0521 206.233 26.3952V18.6182V10.1042Z" fill="#FFC38C"/>
<path fill-rule="evenodd" clip-rule="evenodd" d="M206.078 8.82421H173.864V8.51391C173.864 5.85694 175.648 3.68481 177.84 3.68481H202.102C204.293 3.68481 206.078 5.85694 206.078 8.51391V8.82421Z" fill="#FFC38C"/>
<path fill-rule="evenodd" clip-rule="evenodd" d="M188.061 3.68483H191.435V2.8315C191.435 1.70666 190.679 0.775757 189.748 0.775757C188.817 0.775757 188.061 1.70666 188.061 2.8315V3.68483Z" fill="#FFC38C"/>
<path fill-rule="evenodd" clip-rule="evenodd" d="M206.136 16.8921V10.0848H207.299C208.831 10.0848 210.092 11.617 210.092 13.4788C210.092 15.3406 208.831 16.8727 207.299 16.8727H206.136V16.8921Z" fill="#FFC38C"/>
<path fill-rule="evenodd" clip-rule="evenodd" d="M189.748 31.2242V10.1042H173.884V18.6182V26.3952C173.884 29.0715 175.687 31.2436 177.879 31.2436H189.748V31.2242Z" fill="#FFC38C"/>
<path fill-rule="evenodd" clip-rule="evenodd" d="M173.864 8.82421H189.748V3.68481H188.061H177.84C175.648 3.68481 173.864 5.85694 173.864 8.51391V8.82421Z" fill="#FFC38C"/>
<path fill-rule="evenodd" clip-rule="evenodd" d="M188.061 2.8315V3.68483H189.748V0.775757C188.817 0.775757 188.061 1.70666 188.061 2.8315Z" fill="#FFC38C"/>
<path fill-rule="evenodd" clip-rule="evenodd" d="M173.864 16.9115V10.1042H172.701C171.168 10.1042 169.908 11.6364 169.908 13.4982C169.908 15.36 171.168 16.8921 172.701 16.8921H173.864V16.9115Z" fill="#FFC38C"/>
</svg>
